# xmcd
#
# Track frame offsets: 
#        150
#        22112
#        52917
#        78057
#        92092
#        105457
#        125880
#        141347
#        160127
#        187072
#        213290
#        235485
#        255037
#
# Disc length: 3645 seconds
#
# Revision: 1
# Processed by: cddbd v1.5.2PL0 Copyright (c) Steve Scherf et al.
# Submitted via: ExactAudioCopy v1.0b4
#
DISCID=aa0e3b0d
DTITLE=Various Artist - Chicago Blues Nights, Vol. 2 [recorded 1976-1
DTITLE=977]
DYEAR=1998
DGENRE=Blues
TTITLE0=Eddie Harrington, Jimmy Dawkins - Eddie Harrington, Jimmy Dawk
TTITLE0=ins - Let's Jam
TTITLE1=Eddie Harrington - Eddie Harrington - I Came up the Hard Way
TTITLE2=Eddie Harrington - Eddie Harrington - Three Ways to Skin a Cat
TTITLE3=Eddie Harrington - Eddie Harrington - Let's Boogie
TTITLE4=Freddy Below, Eddie Taylor - Freddy Below, Eddie Taylor - Open
TTITLE4=ing
TTITLE5=Jimmy Reed - Jimmy Reed - Red Light
TTITLE6=Eddie Taylor - Eddie Taylor - Big Town Playboy
TTITLE7=Eddie Taylor - Eddie Taylor - Jackson Town Blues
TTITLE8=Muddy Waters - Muddy Waters - Train Fare Home
TTITLE9=B. Troup-arr, Freddy Below - B. Troup-arr, Freddy Below - Rout
TTITLE9=e 66
TTITLE10=Walter Jacobs - Walter Jacobs - Tell Me Mama
TTITLE11=Eddie Taylor, L.Gibson - Eddie Taylor, L.Gibson - Blues for L
TTITLE11=uc
TTITLE12=Muddy Waters - Muddy Waters - Blow Wind Blow
EXTD=YEAR: 1998
EXTT0=
EXTT1=
EXTT2=
EXTT3=
EXTT4=
EXTT5=
EXTT6=
EXTT7=
EXTT8=
EXTT9=
EXTT10=
EXTT11=
EXTT12=
PLAYORDER=
